<?xml version="1.0" encoding="utf-8"?>
<!-- Generator: Adobe Illustrator 23.0.1, SVG Export Plug-In . SVG Version: 6.00 Build 0)  -->
<svg version="1.1" id="a3fec48f-3481-4190-9b24-b4f8cfdaa861"
	 xmlns="http://www.w3.org/2000/svg" xmlns:xlink="http://www.w3.org/1999/xlink" x="0px" y="0px" viewBox="0 0 1622.9 677.2"
	 style="enable-background:new 0 0 1622.9 677.2;" xml:space="preserve">
<style type="text/css">
	.st0{fill:#E6E6E6;}
	.st1{opacity:0;fill:#FF4800;}
	.st2{fill:#FF4800;}
	.st3{opacity:0.2;enable-background:new    ;}
	.st4{fill:#3F3D56;}
	.st5{fill:#A0616A;}
	.st6{fill:#2F2E41;}
	.st7{opacity:0.3;enable-background:new    ;}
</style>
<title>walking_outside</title>
<path class="st0" d="M1622.5,396.7c0-54.4-44.2-98.6-98.6-98.5c-54.4,0-98.6,44.2-98.5,98.6c0,13.3,2.7,26.5,7.9,38.7
	c-0.1-0.1-0.2-0.2-0.3-0.3c4.4,10.2,10.4,19.6,18,27.8c0,0,0,0,0.1,0.1c0.6,0.7,1.2,1.3,1.8,2c18.2,19,43.2,29.9,69.5,30.3
	l-3.3,180.9h10.3l-2.1-119.4l14.9-7.8l-2.3-4.3l-12.7,6.7l-1-56.1C1579.8,494,1622.5,450.2,1622.5,396.7z"/>
<path class="st0" d="M1330,348.6c0-63.8-51.8-115.5-115.6-115.5c-63.8,0-115.5,51.8-115.5,115.6c0,15.6,3.2,31,9.3,45.4
	c-0.1-0.1-0.2-0.2-0.3-0.4c5.1,12,12.2,23,21,32.6l0.1,0.1c0.7,0.8,1.4,1.5,2.2,2.3c21.3,22.2,50.7,35,81.5,35.5l-3.9,212h12.1
	l-2.4-139.9l17.4-9.2l-2.7-5.1l-14.9,7.8l-1.1-65.7C1279.8,462.7,1330,411.4,1330,348.6z"/>
<path class="st0" d="M998.1,303.4c0-72.6-58.9-131.4-131.5-131.4s-131.4,58.9-131.4,131.5c0,17.7,3.6,35.3,10.6,51.6
	c-0.1-0.1-0.3-0.3-0.4-0.4c5.8,13.6,13.9,26.1,23.9,37.1l0.1,0.1c0.8,0.9,1.6,1.8,2.5,2.6c24.3,25.3,57.7,39.8,92.7,40.3l-4.4,241.3
	h13.7l-2.8-159.3l19.9-10.5l-3-5.8l-17,8.9l-1.3-74.8C941.1,433.2,998.1,374.8,998.1,303.4z"/>
<circle class="st1" cx="1491.6" cy="86" r="86"/>
<circle class="st2" cx="980.4" cy="187.6" r="172.3"/>
<path class="st3" d="M853.2,72.5c-37.4,87.5,3.2,188.8,90.7,226.2c68.1,29.1,147.2,11.5,196.4-43.8
	c-37.4,87.5-138.7,128.1-226.2,90.7S786,206.9,823.4,119.4C830.7,102.3,840.8,86.4,853.2,72.5z"/>
<polygon class="st4" points="980.9,187.6 981.4,187.6 989.9,676.1 971.9,676.1 "/>
<rect x="980.1" y="453.2" transform="matrix(0.8849 -0.4659 0.4659 0.8849 -98.3866 516.7531)" class="st4" width="32.2" height="8.5"/>
<path class="st4" d="M1244,671.6c0,0,0.6-13,13.4-11.5"/>
<circle class="st2" cx="1240.4" cy="652.8" r="6.4"/>
<rect x="1239.3" y="663.5" class="st4" width="1.8" height="12.6"/>
<path class="st4" d="M802,669.8c0,0,0.6-13,13.4-11.5"/>
<circle class="st2" cx="798.4" cy="651" r="6.4"/>
<rect x="797.3" y="661.7" class="st4" width="1.8" height="12.6"/>
<path class="st4" d="M906.4,670.7c0,0,0.6-13,13.4-11.5"/>
<circle class="st2" cx="902.8" cy="651.9" r="6.4"/>
<rect x="901.7" y="662.6" class="st4" width="1.8" height="12.6"/>
<path class="st4" d="M1184.1,83.3l12.8-10.2c-9.9-1.1-14,4.3-15.7,8.6c-7.8-3.2-16.2,1-16.2,1l25.6,9.3
	C1189.3,88.5,1187.1,85.5,1184.1,83.3z"/>
<path class="st4" d="M1378.7,187.5l12.8-10.2c-9.9-1.1-14,4.3-15.7,8.6c-7.8-3.2-16.2,1-16.2,1l25.6,9.3
	C1383.9,192.8,1381.6,189.8,1378.7,187.5z"/>
<path class="st4" d="M1168.8,276.5l12.8-10.2c-9.9-1.1-14,4.3-15.7,8.6c-7.8-3.2-16.2,1-16.2,1l25.6,9.3
	C1174,281.7,1171.8,278.7,1168.8,276.5z"/>
<path class="st5" d="M1094.1,617.9c0,0,10,29.3,5.7,40.1l12.9,11.5l7.9-10c0,0-8.6-8.6-7.9-15s1.4-29.3,1.4-29.3L1094.1,617.9z"/>
<path class="st6" d="M1142.1,675.1c-0.6,0.3-1.1,0.7-1.7,1H1096c-0.8-0.5-1.3-1.4-1.2-2.4c0.2-1.1,0.7-3.2,1.4-5.7
	c1.6-5.9,3.8-13.6,4.3-12.8l0,0l0,0c0.7,1.3,2.1,7,5.7,6.3s9.3-2.2,9.3-2.2s-2-4.6-0.1-6.4c0.4-0.4,1-0.6,1.5-0.7
	c4.3-0.7,4.3,5.7,4.3,5.7l15.7,8.6c1.4,0.4,2.7,0.9,4,1.4C1144.2,669.5,1147.4,672.1,1142.1,675.1z"/>
<path class="st5" d="M1065.5,607.1l-18.6,22.2l-5,11.5l6.4,5l5.7-2.1c0,0,5-12.9,10-15s17.2-16.5,17.2-16.5L1065.5,607.1z"/>
<path class="st6" d="M1104.5,590.1l-9.5,17.6l-6.8,12.6c-2.2,1.3-5.1,1.3-8.2,0.5c-1.5-0.4-2.9-0.8-4.3-1.4
	c-8.5-3.5-17.2-10.4-17.2-10.4l16.3-20.4l5.3-6.7l1.3-1.6l6.1,2.6l10.8,4.6L1104.5,590.1z"/>
<path class="st5" d="M1062.1,438.2l-7.6,31.1l7.8,39.9c0,0,0.2,16.3,7.3,15.1c7.2-1.2-0.3-17.7-0.3-17.7l-3.5-32.7l11.2-32.3
	c0.9-2.7-0.3-5.7-2.9-7l0,0C1069.8,431.8,1063.5,433.7,1062.1,438.2z"/>
<path class="st5" d="M1088.8,411.4l-6.4,20l-12.2-6.4c0,0,5-14.3,5-16.5S1088.8,411.4,1088.8,411.4z"/>
<circle class="st5" cx="1083.7" cy="404.2" r="15"/>
<path class="st2" d="M1087.7,436.1l-2.9-2.9l-0.7-3.6c0,0-9.3-12.2-17.2-7.9c-2.5,1.3-4.3,4.4-5.6,8c-3.5,9.4-3.1,19.9,0.9,29.1
	l12.6,29.5l28.6-2.9l-5-18.6c0,0,5-11.5-4.3-19.3L1087.7,436.1z"/>
<path class="st7" d="M1104.5,590.1l-9.5,17.6l-6.8,12.6c-2.2,1.3-5.1,1.3-8.2,0.5c-0.5-3.6,2.7-22.8,0.2-38.4l0.1-0.6l1.3-1.6
	l6.1,2.6l10.8,4.6L1104.5,590.1z"/>
<path class="st6" d="M1104.5,483.7c0,0-18.6-11.5-31.5,2.9l0.7,4.3c0,0-10.7,12.2-4.3,37.9c6.4,25.8,16.5,93.1,16.5,93.1
	s23.6,1.4,34.4-6.4c0,0-3.6-88.8-15.7-97.3L1104.5,483.7L1104.5,483.7z"/>
<path class="st5" d="M1065.7,443.8l20.2,24.8l36.5,17.9c0,0,13.1,9.7,16.4,3.3s-14.3-10.4-14.3-10.4l-28.2-17l-19-28.4
	c-1.7-2.3-4.7-3.2-7.3-2l0,0C1065.2,433.9,1062.9,440,1065.7,443.8z"/>
<path class="st6" d="M1052.3,642.1c0,0,4.4-5.5,7-2s-3.1,6.5-3.1,6.5l-0.3,17.9c0,0,3.1,13.7-5.3,8.4s-8.7-5.9-10.4-9.1
	s-5.1-15.9-8-20s-5.7-12.4-2.2-13.4s19.8-4.7,19-3.4c-0.8,1.2-5.2,5.1-2.9,8S1052.3,642.1,1052.3,642.1z"/>
<path class="st6" d="M1091.6,391.4C1091.6,391.4,1091.6,391.3,1091.6,391.4c0-11.5-9.3-20.8-20.8-20.8s-20.8,9.3-20.8,20.8
	s9.3,20.8,20.8,20.8l0,0c0.5,0,2.4,3.6,2.9,3.6C1073.8,404.7,1080.8,392.1,1091.6,391.4z"/>
<circle class="st6" cx="1048.7" cy="375.6" r="13.6"/>
<path class="st6" d="M1048,355c7.5,0,13.6,6,13.7,13.5c0,6.1-4,11.4-9.8,13.1c7.5,0,13.6-6.1,13.6-13.6s-6.1-13.6-13.6-13.6
	C1050.6,354.4,1049.3,354.6,1048,355z"/>
<path class="st6" d="M1080.2,387h7.2c7.1,0,12.9,5.8,12.9,12.9l0,0l0,0h-20l0,0L1080.2,387L1080.2,387z"/>
<path class="st4" d="M1418.5,676.3c0,0,0.6-13,13.4-11.5"/>
<path class="st4" d="M1298.8,676.3c0,0,0.6-13,13.4-11.5"/>
<path class="st4" d="M862.2,676.3c0,0,0.6-13,13.4-11.5"/>
<path class="st4" d="M1472.5,676.3c0,0,0.6-13,13.4-11.5"/>
<path class="st4" d="M1447.3,676.3c0,0,0.6-13,13.4-11.5"/>
<path class="st4" d="M1395.3,676.3c0,0-0.6-13-13.4-11.5"/>
<path class="st4" d="M1188.3,676.3c0,0-0.6-13-13.4-11.5"/>
<path class="st4" d="M1016.3,676.3c0,0-0.6-13-13.4-11.5"/>
<path class="st4" d="M833.6,676.3c0,0-0.6-13-13.4-11.5"/>
<path class="st4" d="M1526.8,676.3c0,0-0.6-13-13.4-11.5"/>
<path class="st4" d="M1449.4,677.2c0,0-0.6-13-13.4-11.5"/>
<rect x="734.9" y="674.6" class="st4" width="888" height="2"/>
</svg>
