<?xml version="1.0" encoding="utf-8"?>
<!-- Generator: Adobe Illustrator 23.0.1, SVG Export Plug-In . SVG Version: 6.00 Build 0)  -->
<svg version="1.1" id="a51aa3f3-1eee-4b9c-a018-a525d9332d98"
	 xmlns="http://www.w3.org/2000/svg" xmlns:xlink="http://www.w3.org/1999/xlink" x="0px" y="0px" viewBox="0 0 1326 722.8"
	 style="enable-background:new 0 0 1326 722.8;" xml:space="preserve">
<style type="text/css">
	.st0{fill:#F2F2F2;}
	.st1{opacity:0.1;enable-background:new    ;}
	.st2{fill:#3F3D56;}
	.st3{fill:#FF4800;}
	.st4{fill:#2F2E41;}
	.st5{fill:#FFB8B8;}
	.st6{fill:#575A89;}
</style>
<title>after_the_rain</title>
<path class="st0" d="M652,566.2c0-4.6-20-8.6-50.4-11c24-0.5,41.8-2.3,41.8-4.4c0-2.5-24.7-4.5-55.2-4.5s-55.2,2-55.2,4.5
	c0,0.8,2.7,1.6,7.4,2.3c-61.1,0-110.5,5.9-110.5,13.1c0,3.7,13.4,7.1,34.8,9.5c-13,0.8-21.4,2.1-21.4,3.6c0,2.5,24.7,4.5,55.2,4.5
	c30.5,0,55.2-2,55.2-4.5c0,0,0-0.1,0-0.1C609.1,578.5,652,572.9,652,566.2z"/>
<path class="st1" d="M559.1,555.9c-1.5,0-2.9,0-4.4,0c23.4,0.4,41.8,3.5,41.8,7.3s-18.3,7-41.8,7.3c1.4,0,2.9,0,4.4,0
	c25.5,0,46.1-3.3,46.1-7.4S584.6,555.9,559.1,555.9z"/>
<path class="st1" d="M522.9,559.6c1.5,0,2.9,0,4.4,0c-23.4,0.4-41.8,3.5-41.8,7.3s18.3,7,41.8,7.3c-1.4,0-2.9,0-4.4,0
	c-25.5,0-46.1-3.3-46.1-7.4S497.4,559.6,522.9,559.6z"/>
<path class="st2" d="M502.8,565.4c0,0,5-21,40-14s40,14,40,14H502.8z"/>
<path class="st2" d="M507.7,529.2c8.3,15.5,26,22.1,26,22.1s4.2-18.4-4.2-33.9c-8.3-15.5-26-22.1-26-22.1S499.3,513.8,507.7,529.2z"
	/>
<path class="st3" d="M513.4,524.2c15.1,9.1,20.8,27,20.8,27s-18.6,3.3-33.7-5.8s-20.8-27-20.8-27S498.4,515.1,513.4,524.2z"/>
<path class="st0" d="M736,280.9c0,123.6-73.5,166.8-164.1,166.8s-164.1-43.2-164.1-166.8S571.9,0,571.9,0S736,157.3,736,280.9z"/>
<polygon class="st2" points="565.9,428.7 567.6,325.3 637.6,197.3 567.9,309 568.6,262.5 616.8,169.9 568.8,250.2 568.8,250.2 
	570.2,166.6 621.8,92.8 570.4,153.4 571.2,0 565.9,203.1 566.3,194.7 513.9,114.4 565.5,210.8 560.6,304.2 560.5,301.7 500,217.2 
	560.3,310.5 559.7,322.2 559.6,322.4 559.6,323.3 547.2,560.4 563.8,560.4 565.8,437.9 626,344.8 "/>
<path class="st4" d="M677.2,476.4l-8.6,14.1c0,0-0.4,3.6,2.5,1.4c2.9-2.2,8.4-14.7,8.4-14.7L677.2,476.4z"/>
<path class="st4" d="M751,341.9l21.6-36.1c2.8-4.8,7.8-8,13.4-8.5c4.4-0.4,9,1,11.3,7.2c5.1,13.8-5.2,24.2-5.2,24.2s-4.5,1.2-4.3-3
	l5.1-9c0,0,4.3-12.2-7.7-13.1s-29.1,40.3-29.1,40.3L751,341.9z"/>
<path class="st2" d="M764.2,347.3l-14,12.1c0,5.2-4.6,15.6-11.4,28.3c-0.5,1-1,2-1.6,3c-4,7.4-8.7,15.4-13.6,23.4
	c-0.5,0.9-1.1,1.8-1.6,2.7c-5.5,9-11.2,17.9-16.5,26.2c-0.6,0.9-1.1,1.7-1.6,2.6c-6.1,9.4-11.7,17.7-15.6,23.7
	c-0.6,0.9-1.1,1.7-1.7,2.5c-3,4.4-4.8,7-4.8,7c-1.1,0.7-2.3,1-3.5,1c-0.9-0.1-1.8-0.7-2.2-1.5c-1.3-2.2-0.9-6-0.9-6
	c1-6.4,3.9-14.5,8.1-23.4c0.5-1.1,1-2.2,1.5-3.3c4.2-8.7,9.5-18,15.1-27.3c0.5-0.9,1.1-1.8,1.6-2.7c5.5-8.9,11.2-17.6,16.6-25.6
	c0.6-0.8,1.1-1.6,1.7-2.4c5.3-7.8,10.2-14.7,14.1-20.1c0.6-0.8,1.1-1.6,1.7-2.3c4.5-6.1,7.2-9.8,7.2-9.8l3.2-18.8l6.1,3.7l4.7,2.8
	L764.2,347.3z"/>
<path class="st3" d="M684.9,445.4l3.4,23.7c-0.6,0.9-1.1,1.7-1.7,2.5l-3.3-22.9C683.9,447.6,684.4,446.5,684.9,445.4z"/>
<path class="st3" d="M701.7,415.4l3.9,27.5c-0.6,0.9-1.1,1.7-1.6,2.6l-3.9-27.3C700.6,417.2,701.1,416.3,701.7,415.4z"/>
<path class="st3" d="M719.9,387.3l3.8,26.7c-0.5,0.9-1.1,1.8-1.6,2.7l-3.8-26.9C718.8,389,719.4,388.2,719.9,387.3z"/>
<path class="st3" d="M735.6,364.9l3.2,22.7c-0.5,1-1,2-1.6,3l-3.3-23.3C734.6,366.5,735.1,365.7,735.6,364.9z"/>
<path class="st0" d="M1326,652.2c0-4.6-20-8.6-50.4-11c24-0.5,41.8-2.3,41.8-4.4c0-2.5-24.7-4.5-55.2-4.5s-55.2,2-55.2,4.5
	c0,0.8,2.7,1.6,7.4,2.3c-61.1,0-110.5,5.9-110.5,13.1c0,3.7,13.4,7.1,34.8,9.5c-13,0.8-21.4,2.1-21.4,3.6c0,2.5,24.7,4.5,55.2,4.5
	s55.2-2,55.2-4.5c0,0,0-0.1,0-0.1C1283.1,664.5,1326,658.9,1326,652.2z"/>
<path class="st1" d="M1233.1,641.9c-1.5,0-2.9,0-4.4,0c23.4,0.4,41.8,3.5,41.8,7.3s-18.3,7-41.8,7.3c1.4,0,2.9,0,4.4,0
	c25.5,0,46.1-3.3,46.1-7.4S1258.6,641.9,1233.1,641.9z"/>
<path class="st1" d="M1196.9,645.6c1.5,0,2.9,0,4.4,0c-23.4,0.4-41.8,3.5-41.8,7.3s18.3,7,41.8,7.3c-1.4,0-2.9,0-4.4,0
	c-25.5,0-46.1-3.3-46.1-7.4S1171.4,645.6,1196.9,645.6z"/>
<path class="st0" d="M638,705.2c0-4.6-20-8.6-50.4-11c24-0.5,41.8-2.3,41.8-4.4c0-2.5-24.7-4.5-55.2-4.5s-55.2,2-55.2,4.5
	c0,0.8,2.7,1.6,7.4,2.3c-61.1,0-110.5,5.9-110.5,13.1c0,3.7,13.4,7.1,34.8,9.5c-13,0.8-21.4,2.1-21.4,3.6c0,2.5,24.7,4.5,55.2,4.5
	c30.5,0,55.2-2,55.2-4.5c0,0,0-0.1,0-0.1C595.1,717.5,638,711.9,638,705.2z"/>
<path class="st1" d="M545.1,694.9c-1.5,0-2.9,0-4.4,0c23.4,0.4,41.8,3.5,41.8,7.3s-18.3,7-41.8,7.3c1.4,0,2.9,0,4.4,0
	c25.5,0,46.1-3.3,46.1-7.4S570.6,694.9,545.1,694.9z"/>
<path class="st1" d="M508.9,698.6c1.5,0,2.9,0,4.4,0c-23.4,0.4-41.8,3.5-41.8,7.3s18.3,7,41.8,7.3c-1.4,0-2.9,0-4.4,0
	c-25.5,0-46.1-3.3-46.1-7.4S483.4,698.6,508.9,698.6z"/>
<path class="st0" d="M1036,626.1c0-10.2-32.9-19.1-82.6-24.3c39.4-1.1,68.6-5,68.6-9.7c0-5.5-40.5-10-90.5-10s-90.5,4.5-90.5,10
	c0,1.8,4.4,3.5,12.1,5c-100.1,0.1-181.1,13-181.1,29c0,8.3,21.9,15.8,57.1,21.1c-21.4,1.8-35.1,4.7-35.1,7.9c0,5.5,40.5,10,90.5,10
	s90.5-4.5,90.5-10c0-0.1,0-0.1,0-0.2C965.6,653.2,1036,641,1036,626.1z"/>
<path class="st1" d="M950.5,614.7c-1.2,0-2.3,0-3.5,0c18.8,0.3,33.5,2.8,33.5,5.9s-14.7,5.6-33.5,5.9c1.2,0,2.3,0,3.5,0
	c20.4,0,37-2.6,37-5.9S970.9,614.7,950.5,614.7z"/>
<path class="st1" d="M957.5,586.7c-1.2,0-2.3,0-3.5,0c18.8,0.3,33.5,2.8,33.5,5.9s-14.7,5.6-33.5,5.9c1.2,0,2.3,0,3.5,0
	c20.4,0,37-2.6,37-5.9S977.9,586.7,957.5,586.7z"/>
<path class="st1" d="M773.5,614.7c1.2,0,2.3,0,3.5,0c-18.8,0.3-33.5,2.8-33.5,5.9s14.7,5.6,33.5,5.9c-1.2,0-2.3,0-3.5,0
	c-20.4,0-37-2.6-37-5.9S753.1,614.7,773.5,614.7z"/>
<path class="st1" d="M907.5,585.7c1.2,0,2.3,0,3.5,0c-18.8,0.3-33.5,2.8-33.5,5.9s14.7,5.6,33.5,5.9c-1.2,0-2.3,0-3.5,0
	c-20.4,0-37-2.6-37-5.9S887.1,585.7,907.5,585.7z"/>
<path class="st1" d="M918.4,636.6c-7.8,1.9-29.4,3.2-54.9,3.2s-47-1.3-54.9-3.2c-2,0.5-3.1,1-3.1,1.5c0,2.6,26,4.7,58,4.7
	s58-2.1,58-4.7C921.5,637.6,920.4,637.1,918.4,636.6z"/>
<path class="st1" d="M923.4,611.6c-7.8-1-29.4-1.7-54.9-1.7s-47,0.7-54.9,1.7c-2-0.2-3.1-0.5-3.1-0.8c0-1.4,26-2.4,58-2.4
	s58,1.1,58,2.4C926.5,611.1,925.4,611.3,923.4,611.6z"/>
<path class="st1" d="M805.5,658.3c-4,1-15,1.6-28,1.6s-24-0.7-28-1.6c-1,0.2-1.6,0.5-1.6,0.8c0,1.3,13.2,2.4,29.6,2.4
	s29.6-1.1,29.6-2.4C807.1,658.8,806.5,658.6,805.5,658.3z"/>
<path class="st2" d="M1217.1,651.3l-1.8-0.9c23.1-44.6,10.7-102.6-3.7-143.3c-9.8-27.4-22.3-53.7-37.3-78.7l1.7-1.1
	c15.1,25.1,27.6,51.5,37.5,79.1C1228.1,547.5,1240.6,606.1,1217.1,651.3z"/>
<rect x="1192.7" y="462.4" transform="matrix(0.1798 -0.9837 0.9837 0.1798 552.0596 1588.8258)" class="st2" width="72.2" height="2"/>
<rect x="1179.8" y="475.7" transform="matrix(0.7321 -0.6812 0.6812 0.7321 -41.1977 944.9897)" class="st2" width="2" height="98.4"/>
<rect x="1223.2" y="590.4" transform="matrix(0.5858 -0.8104 0.8104 0.5858 39.3663 1259.7706)" class="st2" width="58" height="2"/>
<circle class="st3" cx="1240.3" cy="398.9" r="10"/>
<circle class="st2" cx="1131.3" cy="475.9" r="10"/>
<circle class="st2" cx="1175.3" cy="485.9" r="10"/>
<circle class="st3" cx="1155.3" cy="524.9" r="10"/>
<circle class="st2" cx="1280.3" cy="549.9" r="10"/>
<circle class="st2" cx="1247.3" cy="560.9" r="10"/>
<circle class="st2" cx="1270.3" cy="592.9" r="10"/>
<circle class="st2" cx="1165.3" cy="410.9" r="10"/>
<circle class="st4" cx="850.6" cy="156.3" r="25.7"/>
<path class="st5" d="M834.5,173.6c0,0,2.2,25.4,0,32s28.7-3.3,28.7-3.3s-12.2-28.7-9.9-31.5S834.5,173.6,834.5,173.6z"/>
<path class="st5" d="M833.7,359.5l-1.7,81.2c0,0-1.1,7.2,3.9,15.5s27.1,70.7,27.1,70.7l18.2-9.9l-1.7-24.9c0,0-3.3-34.3-14.4-47
	l16-77.9L833.7,359.5z"/>
<path class="st1" d="M833.7,359.5l-1.7,81.2c0,0-1.1,7.2,3.9,15.5s27.1,70.7,27.1,70.7l18.2-9.9l-1.7-24.9c0,0-3.3-34.3-14.4-47
	l16-77.9L833.7,359.5z"/>
<path class="st4" d="M883.4,505.4c0,0-45.9,9.4-38.1,24.3s22.1,45.9,22.1,45.9s3.9,19.3-3.3,23.2s-22.1,27.1-7.7,26
	s28.2-17.1,28.2-17.1l12.2-15.5l2.2,3.9l22.1-18.2c0,0,8.3-17.7-22.1-26.5L883.4,505.4z"/>
<path class="st1" d="M883.4,505.4c0,0-45.9,9.4-38.1,24.3s22.1,45.9,22.1,45.9s3.9,19.3-3.3,23.2s-22.1,27.1-7.7,26
	s28.2-17.1,28.2-17.1l12.2-15.5l2.2,3.9l22.1-18.2c0,0,8.3-17.7-22.1-26.5L883.4,505.4z"/>
<path class="st5" d="M824.3,361.7l-1.7,81.2c0,0-1.1,7.2,3.9,15.5s27.1,70.7,27.1,70.7l18.2-9.9l-1.7-24.9c0,0-3.3-34.3-14.4-47
	l16-77.9L824.3,361.7z"/>
<path class="st4" d="M874,507.6c0,0-45.9,9.4-38.1,24.3s22.1,45.9,22.1,45.9s3.9,19.3-3.3,23.2s-22.1,27.1-7.7,26
	s28.2-17.1,28.2-17.1l12.2-15.5l2.2,3.9l22.1-18.2c0,0,8.3-17.7-22.1-26.5L874,507.6z"/>
<circle class="st5" cx="842.2" cy="166.4" r="21"/>
<path class="st6" d="M839.8,198.2c0,0,23.2-12.7,33.7-12.7s22.1-5,23.2,1.1s12.2,22.1,1.1,21s-19.9,0.6-25.4,0
	S839.8,198.2,839.8,198.2z"/>
<path class="st3" d="M826.5,342.9c0,0-9.9,24.9-3.3,26s44.2,3.9,45.9,2.8S876.2,341.8,826.5,342.9z"/>
<path class="st6" d="M894.5,354c-11.6,11.1-5,16-9.4,24.3s-37,1.7-50.3-16s-16.6-11.1-30.9-13.3s-27.1-12.7-14.9-18.8
	c5.6-2.8,10.8-8.6,14.4-15.8c2.7-5.3,4.4-11.1,5-17.1c0.4-4.1,0.2-8.3-0.6-12.4c-2.2-10.7,1.5-31.9,7.6-50.8
	c4.3-13.3,9.8-25.5,15.2-32c0.3-0.4,0.6-0.8,1-1.1c13.3-14.4,43.1-3.9,43.1-3.9s22.1,18.2,14.4,41.4c-6.5,18.8-5.7,39.3,2.2,57.5
	C897.2,309.8,906.1,342.9,894.5,354z"/>
<path class="st5" d="M808.3,308.7l-6.1,3.9c0,0-24.9-7.2-24.3,0s26,9.4,26,9.4l8.8-6.6L808.3,308.7z"/>
<path class="st1" d="M838.1,204.8c0,0-16-6.5-15.7,18.9s8,55.7,8,55.7l-22.6,32.7l7.1,10.9l45.9-37.6v-51.9
	C860.8,233.5,858.5,207,838.1,204.8z"/>
<path class="st1" d="M853,230.8v51.9l-42.3,34.5l-2.8-6.1c2.6-5.1-0.3-7.8,0.3-13.8l14.3-20.7c-3.4-14-5.8-28.2-7.3-42.5
	c4.3-13.3,9.8-25.5,15.2-32C850.8,204.4,853,230.8,853,230.8z"/>
<path class="st6" d="M835.9,202c0,0-16-6.5-15.7,18.9s8,55.7,8,55.7l-22.6,32.7l7.1,10.9l45.9-37.6v-51.9
	C858.5,230.8,856.3,204.2,835.9,202z"/>
<circle class="st4" cx="878.4" cy="122.5" r="25.7"/>
<path class="st4" d="M900.6,143.7c-11.5,8.3-27.6,5.7-35.9-5.8c-1.7-2.3-3-4.9-3.8-7.7c1.8,14.1,14.6,24,28.7,22.3
	c14.1-1.8,24-14.6,22.3-28.7c-0.2-1.4-0.5-2.8-0.9-4.1C912.2,129,908.2,138.2,900.6,143.7z"/>
<circle class="st4" cx="857.5" cy="160.6" r="18.8"/>
<ellipse class="st4" cx="841.6" cy="153.5" rx="16.7" ry="13.1"/>
<ellipse class="st5" cx="837.2" cy="166.9" rx="3.2" ry="5.6"/>
<path class="st0" d="M944.9,562.9c1.5-2,2.8-1.1,4.3,0.1s2.8,2.1,1.3,4.1s-6.7,3.1-6.7,3.1S943.4,564.9,944.9,562.9z"/>
<path class="st0" d="M819.6,583.6c-1.7-1.8-0.6-2.9,0.7-4.2s2.5-2.4,4.2-0.7s2.1,7.1,2.1,7.1S821.4,585.4,819.6,583.6z"/>
<path class="st1" d="M929.2,588.6c2.3,0.9,1.8,2.4,1,4.2s-1.3,3.3-3.6,2.3s-4.8-5.6-4.8-5.6S926.8,587.7,929.2,588.6z"/>
<path class="st1" d="M832.3,636.3c-1.4,2.1-2.2,1.6-3.1,0.9s-1.7-1.2-0.4-3.2s5.3-4.2,5.3-4.2S833.6,634.2,832.3,636.3z"/>
<path class="st1" d="M861.3,638.3c-1.4,2.1-2.2,1.6-3.1,0.9s-1.7-1.2-0.4-3.2s5.3-4.2,5.3-4.2S862.6,636.2,861.3,638.3z"/>
<path class="st1" d="M897.4,624.3c1.1,2.2,0.3,2.7-0.8,3.2s-1.9,0.9-3-1.3s-1-6.8-1-6.8S896.3,622.1,897.4,624.3z"/>
<path class="st1" d="M884.4,628.3c1.1,2.2,0.3,2.7-0.8,3.2s-1.9,0.9-3-1.3s-1-6.8-1-6.8S883.3,626.1,884.4,628.3z"/>
<path class="st0" d="M932.6,541.6c2.2-1.2,2.9,0.2,3.9,1.9s1.7,3.1-0.5,4.3s-7.4,0.1-7.4,0.1S930.4,542.8,932.6,541.6z"/>
</svg>
